<svg xmlns="http://www.w3.org/2000/svg" xmlns:xlink="http://www.w3.org/1999/xlink" width="250.706" height="539.95" viewBox="0 0 250.706 539.95">
  <defs>
    <filter id="Elipse_1" x="16.2" y="405.517" width="134.434" height="134.434" filterUnits="userSpaceOnUse">
      <feOffset dy="2" input="SourceAlpha"/>
      <feGaussianBlur stdDeviation="2.5" result="blur"/>
      <feFlood flood-opacity="0.161"/>
      <feComposite operator="in" in2="blur"/>
      <feComposite in="SourceGraphic"/>
    </filter>
    <filter id="Trazado_3" x="132.162" y="276.991" width="118.544" height="118.342" filterUnits="userSpaceOnUse">
      <feOffset dy="2" input="SourceAlpha"/>
      <feGaussianBlur stdDeviation="2.5" result="blur-2"/>
      <feFlood flood-opacity="0.161"/>
      <feComposite operator="in" in2="blur-2"/>
      <feComposite in="SourceGraphic"/>
    </filter>
    <filter id="Elipse_2" x="156.793" y="149.809" width="90.999" height="91" filterUnits="userSpaceOnUse">
      <feOffset dy="2" input="SourceAlpha"/>
      <feGaussianBlur stdDeviation="2.5" result="blur-3"/>
      <feFlood flood-opacity="0.161"/>
      <feComposite operator="in" in2="blur-3"/>
      <feComposite in="SourceGraphic"/>
    </filter>
    <filter id="Trazado_4" x="77.942" y="36.533" width="75.089" height="74.563" filterUnits="userSpaceOnUse">
      <feOffset dy="2" input="SourceAlpha"/>
      <feGaussianBlur stdDeviation="2.5" result="blur-4"/>
      <feFlood flood-opacity="0.161"/>
      <feComposite operator="in" in2="blur-4"/>
      <feComposite in="SourceGraphic"/>
    </filter>
    <filter id="Elipse_3" x="0" y="0" width="47.565" height="47.565" filterUnits="userSpaceOnUse">
      <feOffset dy="2" input="SourceAlpha"/>
      <feGaussianBlur stdDeviation="2.5" result="blur-5"/>
      <feFlood flood-opacity="0.161"/>
      <feComposite operator="in" in2="blur-5"/>
      <feComposite in="SourceGraphic"/>
    </filter>
  </defs>
  <g id="Capa_1" data-name="Capa 1" transform="translate(243.206 530.45) rotate(180)">
    <g transform="matrix(-1, 0, 0, -1, 243.21, 530.45)" filter="url(#Elipse_1)">
      <circle id="Elipse_1-2" data-name="Elipse 1" cx="59.717" cy="59.717" r="59.717" transform="translate(143.13 530.45) rotate(180)" fill="#64f2d0"/>
    </g>
    <g transform="matrix(-1, 0, 0, -1, 243.21, 530.45)" filter="url(#Trazado_3)">
      <path id="Trazado_3-2" data-name="Trazado 3" d="M51.761,173.329a50.529,50.529,0,0,1-6.2-.372,2.893,2.893,0,0,1-2.521-3.2,2.831,2.831,0,0,1,3.265-2.624,47.276,47.276,0,0,0,11.076,0,2.893,2.893,0,0,1,3.223,2.521,2.934,2.934,0,0,1-2.521,3.244A53.307,53.307,0,0,1,51.761,173.329Zm-17.254-3.12a2.917,2.917,0,0,1-1.012-.186,52.653,52.653,0,0,1-11.055-5.786,2.9,2.9,0,0,1,3.285-4.773,45.287,45.287,0,0,0,9.815,5.124,2.914,2.914,0,0,1-1.033,5.62Zm34.632,0a2.893,2.893,0,0,1-1.033-5.6,45.737,45.737,0,0,0,9.794-5.166,2.914,2.914,0,1,1,3.306,4.773A52.562,52.562,0,0,1,70.255,169.9a2.959,2.959,0,0,1-1.116.186ZM15.249,156.8a2.872,2.872,0,0,1-2.066-.971A51.183,51.183,0,0,1,6.075,145.6a2.893,2.893,0,1,1,5.1-2.707,47.521,47.521,0,0,0,6.323,9.092,2.893,2.893,0,0,1-2.066,4.815Zm73.107,0a2.852,2.852,0,0,1-1.922-.723,2.914,2.914,0,0,1-.248-4.133,45.932,45.932,0,0,0,6.2-9.113,2.9,2.9,0,0,1,5.125,2.707,51.222,51.222,0,0,1-7.088,10.332,2.811,2.811,0,0,1-2.066.93ZM4.339,136.239a2.913,2.913,0,0,1-2.81-2.17A51.659,51.659,0,0,1,0,121.671a2.893,2.893,0,0,1,2.893-2.893h0a2.893,2.893,0,0,1,2.893,2.893,46.39,46.39,0,0,0,1.364,10.972,2.849,2.849,0,0,1-2.81,3.6Zm94.844-.1a3.826,3.826,0,0,1-.682,0,2.893,2.893,0,0,1-2.066-3.513,46.657,46.657,0,0,0,1.322-10.993,3.017,3.017,0,0,1,2.893-3.038,2.79,2.79,0,0,1,2.893,2.748H100.63l2.893.207a51.948,51.948,0,0,1-1.488,12.4A2.914,2.914,0,0,1,99.184,136.136ZM4.277,112.848a2.556,2.556,0,0,1-.682,0,2.893,2.893,0,0,1-2.149-3.575A51.393,51.393,0,0,1,5.848,97.6a2.893,2.893,0,0,1,5.124,2.686,44.985,44.985,0,0,0-3.885,10.332A2.913,2.913,0,0,1,4.277,112.848Zm94.906-.413a2.872,2.872,0,0,1-2.789-2.19,45.461,45.461,0,0,0-3.988-10.332,2.893,2.893,0,0,1,5.1-2.728,51.987,51.987,0,0,1,4.5,11.634,2.913,2.913,0,0,1-2.066,3.513,2.87,2.87,0,0,1-.765.1ZM15.064,92.123a2.769,2.769,0,0,1-1.9-.723,2.914,2.914,0,0,1-.269-4.133A52.256,52.256,0,0,1,22.192,79a2.913,2.913,0,0,1,4.029.723,2.872,2.872,0,0,1-.723,4.133,47.535,47.535,0,0,0-8.265,7.377A2.893,2.893,0,0,1,15.064,92.123Zm73.107-.31a2.893,2.893,0,0,1-2.066-.971,47.522,47.522,0,0,0-8.265-7.315A2.893,2.893,0,1,1,81.1,78.754a52.322,52.322,0,0,1,9.381,8.265,2.913,2.913,0,0,1-2.066,4.835ZM34.239,78.774a2.914,2.914,0,0,1-1.033-5.621,51.651,51.651,0,0,1,12.109-3.017,2.894,2.894,0,0,1,.7,5.744,45.577,45.577,0,0,0-10.724,2.686,2.728,2.728,0,0,1-1.054.207Zm34.632-.145a2.915,2.915,0,0,1-1.012-.186,45.457,45.457,0,0,0-10.766-2.6,2.893,2.893,0,0,1-2.542-3.2,2.934,2.934,0,0,1,3.306-2.624,51.906,51.906,0,0,1,12.15,2.934,2.914,2.914,0,0,1-1.033,5.621Z" transform="translate(243.21 455.82) rotate(180)" fill="#e0beba"/>
    </g>
    <g transform="matrix(-1, 0, 0, -1, 243.21, 530.45)" filter="url(#Elipse_2)">
      <circle id="Elipse_2-2" data-name="Elipse 2" cx="38" cy="38" r="38" transform="translate(240.29 231.31) rotate(180)" fill="#64f2d0"/>
    </g>
    <g transform="matrix(-1, 0, 0, -1, 243.21, 530.45)" filter="url(#Trazado_4)">
      <path id="Trazado_4-2" data-name="Trazado 4" d="M71.508,267.046a3.357,3.357,0,0,1-.641,0,30.024,30.024,0,0,1-12.047-5.765,2.893,2.893,0,1,1,3.6-4.525,24.156,24.156,0,0,0,9.712,4.629,2.893,2.893,0,0,1-.62,5.724Zm12.047,0a2.893,2.893,0,0,1-.64-5.724,24.459,24.459,0,0,0,9.691-4.691,2.895,2.895,0,0,1,3.637,4.5,30.047,30.047,0,0,1-12.026,5.828,2.408,2.408,0,0,1-.744.061ZM52.911,252.457a2.872,2.872,0,0,1-2.6-1.612,29.776,29.776,0,0,1-3.038-13,2.893,2.893,0,0,1,2.872-2.914h0a2.893,2.893,0,0,1,2.893,2.873,23.951,23.951,0,0,0,2.459,10.5,2.893,2.893,0,0,1-1.343,3.864A2.686,2.686,0,0,1,52.911,252.457Zm48.869-.145a2.813,2.813,0,0,1-1.26-.289,2.893,2.893,0,0,1-1.343-3.864,23.824,23.824,0,0,0,2.4-10.5,3.038,3.038,0,0,1,2.893-3.058,2.769,2.769,0,0,1,2.893,2.749v.309a29.735,29.735,0,0,1-2.955,13.018,2.914,2.914,0,0,1-2.562,1.632Zm-48.869-23.37a2.893,2.893,0,0,1-2.624-4.133,30.5,30.5,0,0,1,8.265-10.5,2.893,2.893,0,0,1,3.554,4.5,24.613,24.613,0,0,0-6.654,8.472A2.872,2.872,0,0,1,52.911,228.942Zm48.889-.413a2.893,2.893,0,0,1-2.6-1.611,24.564,24.564,0,0,0-6.819-8.266,2.914,2.914,0,0,1-.5-4.133,2.873,2.873,0,0,1,4.133-.475,30.052,30.052,0,0,1,8.431,10.331,2.894,2.894,0,0,1-1.3,3.885,2.855,2.855,0,0,1-1.426.269ZM71.2,214.065a2.893,2.893,0,0,1-.661-5.724,30.212,30.212,0,0,1,13.328-.1,2.893,2.893,0,1,1-1.219,5.641,24.976,24.976,0,0,0-10.786,0,2.519,2.519,0,0,1-.744.269Z" transform="translate(192.8 309.14) rotate(180)" fill="#e0beba"/>
    </g>
    <g transform="matrix(-1, 0, 0, -1, 243.21, 530.45)" filter="url(#Elipse_3)">
      <circle id="Elipse_3-2" data-name="Elipse 3" cx="16.283" cy="16.283" r="16.283" transform="translate(40.07 38.07) rotate(180)" fill="#64f2d0"/>
    </g>
  </g>
</svg>
