<svg xmlns="http://www.w3.org/2000/svg" viewBox="0 0 153.28 35.19"><defs><style>.cls-1{fill:#64f2d0;}</style></defs><title>logo_1</title><g id="Capa_2" data-name="Capa 2"><g id="Capa_1-2" data-name="Capa 1"><path class="cls-1" d="M16.77,16.9a17.06,17.06,0,0,0-3.55-2.06,36.49,36.49,0,0,1-3.54-1.75A9.63,9.63,0,0,1,7,10.82,5.5,5.5,0,0,1,5.87,7.26,7,7,0,0,1,6.2,5.09a5.07,5.07,0,0,1,1-1.78A4.45,4.45,0,0,1,8.73,2.1a5.1,5.1,0,0,1,2.15-.44,4.69,4.69,0,0,1,2,.4,4.26,4.26,0,0,1,1.39,1,4,4,0,0,1,.81,1.42A5,5,0,0,1,15,7.91a2.88,2.88,0,0,1-1,1.34,3.44,3.44,0,0,0,.91.74,2.35,2.35,0,0,0,1.09.23,2.41,2.41,0,0,0,2-1,4.69,4.69,0,0,0,.76-2.87,5.48,5.48,0,0,0-.95-3.39A6.2,6.2,0,0,0,15.55,1,8.71,8.71,0,0,0,12.86.19,16,16,0,0,0,10.71,0a10.58,10.58,0,0,0-3.5.58,8.11,8.11,0,0,0-3,1.76A8.88,8.88,0,0,0,2.18,5.28a9.79,9.79,0,0,0-.79,4.07,8,8,0,0,0,1,4.29,8.49,8.49,0,0,0,2.52,2.61A19.72,19.72,0,0,0,8.18,18a21,21,0,0,1,3.28,1.76A8.8,8.8,0,0,1,14,22.3a7.28,7.28,0,0,1,1,4.09,7,7,0,0,1-1.39,4.68,4.41,4.41,0,0,1-3.51,1.62,6.61,6.61,0,0,1-1.92-.3,6.07,6.07,0,0,1-1.85-.93A5.27,5.27,0,0,1,4.9,29.9a4.18,4.18,0,0,1-.55-2.18,5.62,5.62,0,0,1,.16-1.3,3.71,3.71,0,0,1,.58-1.3,3.32,3.32,0,0,1,1.13-1,3.92,3.92,0,0,1,1.83-.46,4.56,4.56,0,0,0-1.28-2.08A2.72,2.72,0,0,0,5,21a3.91,3.91,0,0,0-2.2.63,5.29,5.29,0,0,0-1.57,1.59,8,8,0,0,0-.95,2.17A9.36,9.36,0,0,0,0,27.74a6.34,6.34,0,0,0,.86,3.4A7.06,7.06,0,0,0,3.1,33.45a9.94,9.94,0,0,0,3.14,1.32,15.26,15.26,0,0,0,3.56.42,14.44,14.44,0,0,0,4-.56,9.74,9.74,0,0,0,3.44-1.75,8.77,8.77,0,0,0,2.43-3.17A11,11,0,0,0,20.58,25a9.9,9.9,0,0,0-1.09-5A10.47,10.47,0,0,0,16.77,16.9Z"/><path class="cls-1" d="M64.41,31.4A1.88,1.88,0,0,1,63.07,31a2.79,2.79,0,0,1-.69-1,4.12,4.12,0,0,1-.28-1.25c0-.43-.05-.8-.05-1.11,0-1.36,0-2.76.12-4.21s.11-2.68.11-3.7a20.54,20.54,0,0,0-.21-2.87,8.05,8.05,0,0,0-.85-2.7,5.13,5.13,0,0,0-1.92-2A6.25,6.25,0,0,0,56,11.28a7.24,7.24,0,0,0-1.27.12,5.35,5.35,0,0,0-1.41.48A5.44,5.44,0,0,0,51.81,13a10.9,10.9,0,0,0-1.41,2V11.51H45.77V26.56c-.71,3.22-1.8,4.84-3.28,4.84a1.44,1.44,0,0,1-1.15-.49,3.17,3.17,0,0,1-.63-1.16,5.72,5.72,0,0,1-.25-1.36c0-.46-.05-.85-.05-1.16V11.51H35.79v2.18A3.82,3.82,0,0,0,35,12.53a4.09,4.09,0,0,0-1.09-.75,4.78,4.78,0,0,0-1.2-.38,6.3,6.3,0,0,0-1.18-.12,6.53,6.53,0,0,0-4,1.25,9.92,9.92,0,0,0-2.73,3.15,14.52,14.52,0,0,0-1.55,4.2,21.86,21.86,0,0,0-.49,4.44,14.75,14.75,0,0,0,.72,4.93,9.81,9.81,0,0,0,1.85,3.28,6.61,6.61,0,0,0,2.54,1.83,7.62,7.62,0,0,0,2.8.55,5.69,5.69,0,0,0,3.77-1.29,7.56,7.56,0,0,0,2.24-3.1,8.9,8.9,0,0,0,.51,1.66A4.78,4.78,0,0,0,38,33.57a4.06,4.06,0,0,0,1.29,1,4.12,4.12,0,0,0,1.83.37,6.31,6.31,0,0,0,1.66-.25,4.08,4.08,0,0,0,1.8-1.14,7.12,7.12,0,0,0,1.2-1.66v2.77H50.4V19.84A8.93,8.93,0,0,1,52.09,16a3.2,3.2,0,0,1,2.47-1.15,2.69,2.69,0,0,1,1.13.23,2.32,2.32,0,0,1,1,.78,4.19,4.19,0,0,1,.65,1.53,11.07,11.07,0,0,1,.23,2.45c0,.31,0,.85,0,1.62s0,1.59,0,2.45,0,1.67-.05,2.43,0,1.27,0,1.55a11.76,11.76,0,0,0,.3,2.7,6.59,6.59,0,0,0,1,2.24,5,5,0,0,0,1.69,1.55,4.83,4.83,0,0,0,2.45.58,6.13,6.13,0,0,0,1-.09,2.25,2.25,0,0,0,1-.46,2.89,2.89,0,0,0,.78-1.07,4.61,4.61,0,0,0,.33-1.94V31a1.3,1.3,0,0,1-.69.3A6.7,6.7,0,0,1,64.41,31.4ZM35.79,26.34a5.31,5.31,0,0,1-.37,2,5.75,5.75,0,0,1-1,1.6A4.77,4.77,0,0,1,33.18,31a2.86,2.86,0,0,1-1.41.4,3.48,3.48,0,0,1-3.12-1.72Q27.56,28,27.56,24a20.62,20.62,0,0,1,.3-3.41,14.32,14.32,0,0,1,.95-3.29,7.3,7.3,0,0,1,1.71-2.5,3.56,3.56,0,0,1,2.54-1,2.41,2.41,0,0,1,1.73.63,4.12,4.12,0,0,1,1,1.36Z"/><path class="cls-1" d="M81.35,28a2.34,2.34,0,0,0-1.33.4,1.27,1.27,0,0,0-.58,1.13,1.34,1.34,0,0,0,.23.74,1,1,0,0,0,.61.46,1.14,1.14,0,0,1-.58.7,2.78,2.78,0,0,1-1.33.27c-.31,0-.75,0-1.34,0l-1.8-.09-1.74-.1c-.53,0-.9,0-1.08,0l9.92-19.89H70.84a6.56,6.56,0,0,0-3.72.77,2.33,2.33,0,0,0-1.05,2,4.15,4.15,0,0,0,.67,2.34,2.24,2.24,0,0,0,2,1,2.3,2.3,0,0,0,1.5-.46,1.27,1.27,0,0,0,.58-1,.86.86,0,0,0-.39-.74.88.88,0,0,1-.4-.74c0-.28.27-.46.81-.53A12.82,12.82,0,0,1,72.65,14h4l-10,20.62H78.78a6.17,6.17,0,0,0,3.84-1.29,4,4,0,0,0,1.07-1.25,2.87,2.87,0,0,0,.37-1.39,2.48,2.48,0,0,0-.84-2A2.88,2.88,0,0,0,81.35,28Z"/><path class="cls-1" d="M125.4,7.91A3.08,3.08,0,0,0,127.57,7a2.88,2.88,0,0,0,.93-2.18,3,3,0,0,0-.93-2.17,3,3,0,0,0-2.17-.92,2.89,2.89,0,0,0-2.17.92,3,3,0,0,0-.88,2.17,3,3,0,0,0,3.05,3.06Z"/><path class="cls-1" d="M152.59,31.33a6.7,6.7,0,0,1-.79.07,1.88,1.88,0,0,1-1.34-.44,2.79,2.79,0,0,1-.69-1,4.12,4.12,0,0,1-.28-1.25c0-.43-.05-.8-.05-1.11,0-1.36,0-2.76.12-4.21s.11-2.68.11-3.7a20.54,20.54,0,0,0-.21-2.87,8.05,8.05,0,0,0-.85-2.7,5.13,5.13,0,0,0-1.92-2,6.25,6.25,0,0,0-3.35-.79,7.16,7.16,0,0,0-1.27.12,5.35,5.35,0,0,0-1.41.48A5.29,5.29,0,0,0,139.2,13a10,10,0,0,0-1.41,2V11.51h-4.62v15c-.72,3.22-1.81,4.85-3.29,4.85a1.45,1.45,0,0,1-1.15-.49,3.17,3.17,0,0,1-.63-1.16,5.72,5.72,0,0,1-.25-1.36c0-.46,0-.85,0-1.16V11.51h-4.62V26.36a10.62,10.62,0,0,1-1.41,3.83,2.38,2.38,0,0,1-1.92,1.21,1.5,1.5,0,0,1-1.2-.49,2.86,2.86,0,0,1-.6-1.13,6.53,6.53,0,0,1-.24-1.32c0-.45,0-.79,0-1,0-.59,0-1.23,0-1.92s.07-1.39.1-2.08.06-1.37.09-2,0-1.28,0-1.83a19.68,19.68,0,0,0-.21-2.8,8.26,8.26,0,0,0-.86-2.68,5.13,5.13,0,0,0-1.92-2,6.22,6.22,0,0,0-3.35-.79,7.24,7.24,0,0,0-1.27.12,5.35,5.35,0,0,0-1.41.48A5.44,5.44,0,0,0,107.57,13a10,10,0,0,0-1.41,2V11.51h-4.62V26.45a8.11,8.11,0,0,1-3.1,3.79,8,8,0,0,1-4.16,1.16,6.81,6.81,0,0,1-1.87-.26,3.79,3.79,0,0,1-1.6-.92,5.62,5.62,0,0,1-1.18-1.83,11,11,0,0,1-.67-3,13.7,13.7,0,0,0,7.38-2.68A6.73,6.73,0,0,0,99,17.29a7.13,7.13,0,0,0-.54-3,4.68,4.68,0,0,0-1.41-1.83,5.2,5.2,0,0,0-2-.92,9.8,9.8,0,0,0-2.24-.26,6.65,6.65,0,0,0-4.19,1.3,10.08,10.08,0,0,0-2.73,3.23A15.25,15.25,0,0,0,84.45,20,22.41,22.41,0,0,0,84,24.23a15,15,0,0,0,.72,5,9.63,9.63,0,0,0,1.87,3.31,6.7,6.7,0,0,0,2.66,1.83,9,9,0,0,0,6.55-.14,12.3,12.3,0,0,0,3.09-1.88,13,13,0,0,0,2.5-2.72l.14-.22v5.23h4.62V19.84A9,9,0,0,1,107.85,16a3.21,3.21,0,0,1,2.47-1.15,2.77,2.77,0,0,1,1.14.23,2.38,2.38,0,0,1,1,.78,4.19,4.19,0,0,1,.64,1.53,10.5,10.5,0,0,1,.23,2.45c0,.31,0,.85,0,1.62s0,1.59-.05,2.45,0,1.67,0,2.43,0,1.27,0,1.55a11.84,11.84,0,0,0,.31,2.68,6.77,6.77,0,0,0,.94,2.26,4.86,4.86,0,0,0,1.67,1.55,4.93,4.93,0,0,0,2.49.58,5.76,5.76,0,0,0,1.62-.25,4.2,4.2,0,0,0,1.76-1.14A9,9,0,0,0,123.56,31a6.1,6.1,0,0,0,.68,1.66,4.86,4.86,0,0,0,1.62,1.6,5.06,5.06,0,0,0,2.64.62,6.31,6.31,0,0,0,1.66-.25,4.08,4.08,0,0,0,1.8-1.14,7.43,7.43,0,0,0,1.21-1.66v2.77h4.62V19.84A8.93,8.93,0,0,1,139.48,16,3.21,3.21,0,0,1,142,14.8a2.69,2.69,0,0,1,1.13.23,2.32,2.32,0,0,1,.95.78,4.19,4.19,0,0,1,.65,1.53,11.07,11.07,0,0,1,.23,2.45c0,.31,0,.85,0,1.62s0,1.59,0,2.45,0,1.67-.05,2.43,0,1.27,0,1.55a11.76,11.76,0,0,0,.3,2.7,6.59,6.59,0,0,0,1,2.24,5,5,0,0,0,1.69,1.55,4.85,4.85,0,0,0,2.45.58,6.13,6.13,0,0,0,1-.09,2.25,2.25,0,0,0,1-.46,3,3,0,0,0,.79-1.07,4.79,4.79,0,0,0,.32-1.94V31A1.26,1.26,0,0,1,152.59,31.33ZM89.22,20.09a15.17,15.17,0,0,1,.9-3.24,7.46,7.46,0,0,1,1.5-2.38,2.87,2.87,0,0,1,2.11-.92,2,2,0,0,1,1.71.76,4.13,4.13,0,0,1,.6,2.52,5.84,5.84,0,0,1-1.92,4.44,9.55,9.55,0,0,1-5.2,2.31A21,21,0,0,1,89.22,20.09Z"/></g></g></svg>