<svg id="Capa_2" data-name="Capa 2" xmlns="http://www.w3.org/2000/svg" width="191.792" height="188.592" viewBox="0 0 191.792 188.592">
  <g id="Capa_1" data-name="Capa 1" transform="translate(0 0)">
    <path id="Trazado_2" data-name="Trazado 2" d="M137.371,189.082a.379.379,0,0,1-.371-.371.371.371,0,0,1,.371-.371,88.975,88.975,0,1,0,0-177.951.371.371,0,0,1-.371-.367.379.379,0,0,1,.371-.371,89.718,89.718,0,1,1,0,179.435Z" transform="translate(-35.299 -2.486)" fill="#64f2d0"/>
    <circle id="Elipse_1" data-name="Elipse 1" cx="21.454" cy="21.454" r="21.454" transform="translate(35.952 0)" fill="#64f2d0"/>
    <path id="Trazado_3" data-name="Trazado 3" d="M18.6,107.114a18.153,18.153,0,0,1-2.227-.134,1.039,1.039,0,0,1-.906-1.151,1.017,1.017,0,0,1,1.173-.943,16.984,16.984,0,0,0,3.979,0,1.039,1.039,0,0,1,1.158.906,1.054,1.054,0,0,1-.906,1.165A19.148,19.148,0,0,1,18.6,107.114Zm-6.2-1.121a1.048,1.048,0,0,1-.364-.067,18.916,18.916,0,0,1-3.972-2.079,1.041,1.041,0,0,1,1.18-1.715,16.27,16.27,0,0,0,3.526,1.841,1.047,1.047,0,0,1-.371,2.019Zm12.442,0a1.039,1.039,0,0,1-.371-2.012,16.432,16.432,0,0,0,3.519-1.856,1.047,1.047,0,1,1,1.188,1.715,18.884,18.884,0,0,1-3.934,2.041,1.063,1.063,0,0,1-.4.067Zm-19.36-4.818a1.032,1.032,0,0,1-.742-.349,18.388,18.388,0,0,1-2.554-3.675,1.039,1.039,0,1,1,1.834-.972,17.072,17.072,0,0,0,2.272,3.266,1.039,1.039,0,0,1-.742,1.73Zm26.264,0a1.025,1.025,0,0,1-.69-.26,1.047,1.047,0,0,1-.089-1.485,16.5,16.5,0,0,0,2.227-3.274,1.041,1.041,0,0,1,1.841.972,18.4,18.4,0,0,1-2.546,3.712,1.01,1.01,0,0,1-.742.334ZM1.559,93.789a1.047,1.047,0,0,1-1.01-.779A18.559,18.559,0,0,1,0,88.555a1.039,1.039,0,0,1,1.039-1.039h0a1.039,1.039,0,0,1,1.039,1.039,16.666,16.666,0,0,0,.49,3.942,1.024,1.024,0,0,1-1.01,1.292Zm34.074-.037a1.374,1.374,0,0,1-.245,0,1.039,1.039,0,0,1-.742-1.262,16.762,16.762,0,0,0,.475-3.949,1.084,1.084,0,0,1,1.039-1.091,1,1,0,0,1,1.039.987H36.152l1.039.074a18.662,18.662,0,0,1-.534,4.454A1.047,1.047,0,0,1,35.632,93.752Zm-34.1-8.366a.918.918,0,0,1-.245,0A1.039,1.039,0,0,1,.52,84.1,18.463,18.463,0,0,1,2.1,79.907a1.039,1.039,0,0,1,1.841.965,16.161,16.161,0,0,0-1.4,3.712A1.047,1.047,0,0,1,1.537,85.386Zm34.1-.148a1.032,1.032,0,0,1-1-.787A16.332,16.332,0,0,0,33.2,80.739a1.039,1.039,0,0,1,1.834-.98,18.677,18.677,0,0,1,1.618,4.179,1.047,1.047,0,0,1-.742,1.262,1.031,1.031,0,0,1-.275.037ZM5.412,77.94a1,1,0,0,1-.683-.26,1.047,1.047,0,0,1-.1-1.485,18.774,18.774,0,0,1,3.341-2.969,1.047,1.047,0,0,1,1.448.26,1.032,1.032,0,0,1-.26,1.485,17.077,17.077,0,0,0-2.969,2.65A1.039,1.039,0,0,1,5.412,77.94Zm26.264-.111a1.039,1.039,0,0,1-.742-.349,17.073,17.073,0,0,0-2.969-2.628,1.039,1.039,0,1,1,1.173-1.715,18.8,18.8,0,0,1,3.37,2.969,1.047,1.047,0,0,1-.742,1.737ZM12.3,73.144a1.047,1.047,0,0,1-.371-2.019,18.556,18.556,0,0,1,4.35-1.084,1.04,1.04,0,0,1,.252,2.064,16.374,16.374,0,0,0-3.853.965.98.98,0,0,1-.379.074Zm12.442-.052a1.047,1.047,0,0,1-.364-.067,16.331,16.331,0,0,0-3.868-.935A1.039,1.039,0,0,1,19.6,70.94,1.054,1.054,0,0,1,20.786,70a18.647,18.647,0,0,1,4.365,1.054,1.047,1.047,0,0,1-.371,2.019Z" transform="translate(0 -18.033)" fill="#64f2d0"/>
    <ellipse id="Elipse_2" data-name="Elipse 2" cx="13.652" cy="13.652" rx="13.652" ry="13.652" transform="translate(1.047 107.469)" fill="#64f2d0"/>
    <path id="Trazado_4" data-name="Trazado 4" d="M55.978,228.921a1.208,1.208,0,0,1-.23,0,10.786,10.786,0,0,1-4.328-2.071,1.039,1.039,0,1,1,1.292-1.626,8.679,8.679,0,0,0,3.489,1.663,1.039,1.039,0,0,1-.223,2.056Zm4.328,0a1.039,1.039,0,0,1-.23-2.056,8.787,8.787,0,0,0,3.482-1.685,1.04,1.04,0,0,1,1.307,1.618,10.8,10.8,0,0,1-4.32,2.094.866.866,0,0,1-.267.022ZM49.3,223.68a1.032,1.032,0,0,1-.935-.579,10.7,10.7,0,0,1-1.091-4.669,1.039,1.039,0,0,1,1.032-1.047h0a1.039,1.039,0,0,1,1.039,1.032,8.6,8.6,0,0,0,.883,3.771,1.039,1.039,0,0,1-.483,1.388A.965.965,0,0,1,49.3,223.68Zm17.556-.052a1.01,1.01,0,0,1-.453-.1,1.039,1.039,0,0,1-.483-1.388,8.559,8.559,0,0,0,.861-3.771,1.091,1.091,0,0,1,1.039-1.1.995.995,0,0,1,1.039.987v.111a10.682,10.682,0,0,1-1.062,4.677,1.047,1.047,0,0,1-.921.586Zm-17.556-8.4a1.039,1.039,0,0,1-.943-1.485,10.956,10.956,0,0,1,2.969-3.771,1.039,1.039,0,0,1,1.277,1.618,8.842,8.842,0,0,0-2.39,3.044A1.032,1.032,0,0,1,49.3,215.232Zm17.564-.148a1.039,1.039,0,0,1-.935-.579,8.825,8.825,0,0,0-2.45-2.969,1.047,1.047,0,0,1-.178-1.485,1.032,1.032,0,0,1,1.485-.171,10.8,10.8,0,0,1,3.029,3.712,1.04,1.04,0,0,1-.468,1.4,1.026,1.026,0,0,1-.512.1Zm-10.994-5.2a1.039,1.039,0,0,1-.238-2.056,10.854,10.854,0,0,1,4.788-.037,1.039,1.039,0,1,1-.438,2.027,8.972,8.972,0,0,0-3.875,0,.9.9,0,0,1-.267.1Z" transform="translate(-12.179 -53.476)" fill="#64f2d0"/>
    <circle id="Elipse_3" data-name="Elipse 3" cx="5.85" cy="5.85" r="5.85" transform="translate(72.98 176.893)" fill="#64f2d0"/>
    <path id="Trazado_5" data-name="Trazado 5" d="M165.519,110.2a79.212,79.212,0,0,0-.817-11.38,2.888,2.888,0,0,0-3.949-2.272h0a2.877,2.877,0,0,1-2.531-5.152l2.368-1.381a2.866,2.866,0,0,0,1.314-3.333c-6.644-20.607-21.736-35-39.3-35-23.7,0-42.915,26.2-42.915,58.519a75.719,75.719,0,0,0,4.989,27.37,2.858,2.858,0,0,0,3.415,1.685l75.051-20.236a2.866,2.866,0,0,0,2.145-2.517C165.43,114.423,165.519,112.322,165.519,110.2Z" transform="translate(-20.532 -13.316)" fill="#64f2d0"/>
    <path id="Trazado_6" data-name="Trazado 6" d="M100.009,174.012a2.888,2.888,0,0,0-1.136,4.5c7.579,9.205,17.564,14.8,28.506,14.8,19.694,0,36.278-18.091,41.326-42.744a2.88,2.88,0,0,0-3.927-3.214Z" transform="translate(-25.307 -37.911)" fill="#64f2d0"/>
  </g>
</svg>
